# xmcd CD database file
#
# Track frame offsets:
#	150
#	17475
#	37270
#	52707
#	71082
#	90025
#	102842
#	117790
#	132487
#	149545
#	164945
#	180882
#	194710
#	211375
#
# Disc length: 3056 seconds
#
# Revision: 1
# Processed by: cddbd v1.5PL3 Copyright (c) Steve Scherf et al.
# Submitted via: CDex 1.51
#
DISCID=c60bee0e
DTITLE=O-Town - 02
DYEAR=1900
DGENRE=Pop
TTITLE0=From TheDamege
TTITLE1=These Are The Days
TTITLE2=I Only Dance With You
TTITLE3=Favorite Girl
TTITLE4=I Showd Her
TTITLE5=Been Around The World
TTITLE6=Make Her Say
TTITLE7=The Joint
TTITLE8=Suddenly
TTITLE9=Craving
TTITLE10=Over Easy
TTITLE11=Girl Like That
TTITLE12=You Can't Lose Me
TTITLE13=We Fit Together
EXTD=
EXTT0=
EXTT1=
EXTT2=
EXTT3=
EXTT4=
EXTT5=
EXTT6=
EXTT7=
EXTT8=
EXTT9=
EXTT10=
EXTT11=
EXTT12=
EXTT13=
PLAYORDER=
